<?xml version="1.0" encoding="UTF-8" standalone="no"?>
<!-- Created with Inkscape (http://www.inkscape.org/) -->

<svg
   width="240.10498"
   height="298.55988"
   viewBox="0 0 240.10498 298.55988"
   version="1.1"
   id="svg1"
   xml:space="preserve"
   inkscape:version="1.4 (86a8ad7, 2024-10-11)"
   sodipodi:docname="MaherLogo.svg"
   xmlns:inkscape="http://www.inkscape.org/namespaces/inkscape"
   xmlns:sodipodi="http://sodipodi.sourceforge.net/DTD/sodipodi-0.dtd"
   xmlns:xlink="http://www.w3.org/1999/xlink"
   xmlns="http://www.w3.org/2000/svg"
   xmlns:svg="http://www.w3.org/2000/svg"><sodipodi:namedview
     id="namedview1"
     pagecolor="#ffffff"
     bordercolor="#000000"
     borderopacity="0.25"
     inkscape:showpageshadow="2"
     inkscape:pageopacity="0.0"
     inkscape:pagecheckerboard="0"
     inkscape:deskcolor="#535353"
     inkscape:document-units="px"
     inkscape:zoom="0.28622633"
     inkscape:cx="1532.0044"
     inkscape:cy="347.627"
     inkscape:window-width="2752"
     inkscape:window-height="1129"
     inkscape:window-x="1912"
     inkscape:window-y="-8"
     inkscape:window-maximized="1"
     inkscape:current-layer="layer1"><inkscape:page
       x="0"
       y="0"
       width="240.10498"
       height="298.55988"
       id="page2"
       margin="0"
       bleed="0" /></sodipodi:namedview><defs
     id="defs1"><linearGradient
       id="linearGradient2"
       inkscape:collect="always"><stop
         style="stop-color:#00e6bc;stop-opacity:1;"
         offset="0"
         id="stop2" /><stop
         style="stop-color:#c600e8;stop-opacity:1;"
         offset="1"
         id="stop1" /></linearGradient><linearGradient
       id="linearGradient109"
       inkscape:collect="always"><stop
         style="stop-color:#2affdd;stop-opacity:1;"
         offset="0"
         id="stop108" /><stop
         style="stop-color:#8a13ff;stop-opacity:1;"
         offset="1"
         id="stop109" /></linearGradient><linearGradient
       inkscape:collect="always"
       xlink:href="#linearGradient109"
       id="linearGradient84"
       gradientUnits="userSpaceOnUse"
       gradientTransform="translate(3422.8502,-621.86605)"
       x1="724.20081"
       y1="997.89514"
       x2="963.39154"
       y2="1018.8217" /><linearGradient
       inkscape:collect="always"
       xlink:href="#linearGradient2"
       id="linearGradient3"
       x1="23.998331"
       y1="127.98878"
       x2="224.02144"
       y2="127.98878"
       gradientUnits="userSpaceOnUse" /><linearGradient
       inkscape:collect="always"
       xlink:href="#linearGradient2"
       id="linearGradient6"
       gradientUnits="userSpaceOnUse"
       x1="23.998331"
       y1="127.98878"
       x2="224.02144"
       y2="127.98878" /></defs><g
     inkscape:label="Layer 1"
     inkscape:groupmode="layer"
     id="layer1"
     transform="translate(-4146.5942,-117.82003)"><g
       style="fill:url(#linearGradient3)"
       id="g2-3-9-7"
       transform="matrix(1.0180736,0,0,1.0180736,4129.9146,101.45227)"
       inkscape:export-filename="MaherLogo.png"
       inkscape:export-xdpi="96"
       inkscape:export-ydpi="96"><path
         d="m 120,72 a 8,8 0 1 1 8,8 8,8 0 0 1 -8,-8 z m 24,64 a 8,8 0 1 0 8,-8 8,8 0 0 0 -8,8 z m 48.5,35.47 A 88.32,88.32 0 0 0 224,101.89 q 0,-1.1 -0.09,-2.19 a 4,4 0 0 0 -4,-3.75 H 195.75 L 172.62,123.7 A 24,24 0 1 1 160.34,113.45 L 185.85,82.83 A 8,8 0 0 1 192,80 h 23.14 a 4,4 0 0 0 3.77,-5.35 C 207.27,42 176.86,18 140.74,16.08 h -0.59 a 4,4 0 0 0 -4.15,4 v 29.25 a 24,24 0 1 1 -16,0 v -27 A 4,4 0 0 0 115.11,18.42 88.16,88.16 0 0 0 48,102 l -22.45,43.14 -0.22,0.45 a 16,16 0 0 0 7.51,20.7 l 0.25,0.12 L 56,176.9 v 31 a 16,16 0 0 0 16,16 h 40 v 8 a 8,8 0 0 0 8,8 h 71.77 a 8.42,8.42 0 0 0 4.06,-1 8,8 0 0 0 4.11,-8 z"
         id="path1-1-9-8-9"
         style="fill:url(#linearGradient6);fill-opacity:1" /></g><text
       xml:space="preserve"
       style="font-style:normal;font-variant:normal;font-weight:900;font-stretch:condensed;font-size:82.447px;font-family:Roboto;-inkscape-font-specification:'Roboto Heavy Condensed';text-align:center;writing-mode:lr-tb;direction:ltr;text-anchor:middle;fill:url(#linearGradient84);fill-opacity:1;stroke-width:30.6448;stroke-linejoin:round"
       x="4263.7925"
       y="415.47299"
       id="text1-8-4-0-6-3-4-4"><tspan
         sodipodi:role="line"
         id="tspan1-2-2-2-1-7-9-2"
         x="4263.7925"
         y="415.47299"
         style="font-style:normal;font-variant:normal;font-weight:800;font-stretch:normal;font-family:Nunito;-inkscape-font-specification:'Nunito Ultra-Bold';fill:url(#linearGradient84);stroke-width:30.6448">Maher</tspan></text></g></svg>
